<svg xmlns="http://www.w3.org/2000/svg" viewBox="0 0 60.25 60.25"><defs><style>.cls-1{fill:#1f2937;}.cls-2{fill:#e5e7eb;}.cls-3{fill:#231f20;opacity:0.47;}</style></defs><g id="Layer_2" data-name="Layer 2"><g id="Layer_5" data-name="Layer 5"><circle class="cls-1" cx="30.13" cy="30.13" r="29.78"/><path class="cls-2" d="M14.72,15.75V44.5a2.05,2.05,0,0,0,2,2.06h6.17V42.45H18.83V17.8h4.11V13.69H16.77A2.05,2.05,0,0,0,14.72,15.75Zm29.25-2L27.54,9.64a2.05,2.05,0,0,0-2.55,2v37a2.06,2.06,0,0,0,2,2.06,1.7,1.7,0,0,0,.51-.07L44,46.5a2.05,2.05,0,0,0,1.56-2V15.75A2.05,2.05,0,0,0,44,13.75ZM35.26,30.51a2.06,2.06,0,0,1-4.11,0v-.77a2.06,2.06,0,1,1,4.11,0Z"/><rect class="cls-3" width="60.25" height="60.25" rx="30.12"/></g></g></svg>