<svg xmlns="http://www.w3.org/2000/svg" viewBox="0 0 29 29"><defs><style>.cls-1{fill:#1f2937;}.cls-2{fill:#e5e7eb;}</style></defs><g id="Layer_2" data-name="Layer 2"><g id="Layer_5" data-name="Layer 5"><circle class="cls-1" cx="14.5" cy="14.5" r="14.5"/><path class="cls-2" d="M7,7.5v14a1,1,0,0,0,1,1h3v-2H9V8.5h2v-2H8A1,1,0,0,0,7,7.5Zm14.24-1-8-2A1,1,0,0,0,12,5.26a1,1,0,0,0,0,.24v18a1,1,0,0,0,1,1,1,1,0,0,0,.24,0l8-2a1,1,0,0,0,.76-1V7.5A1,1,0,0,0,21.24,6.53ZM17,14.69a1,1,0,0,1-2,0v-.38a1,1,0,0,1,2,0Z"/></g></g></svg>