<svg xmlns="http://www.w3.org/2000/svg" viewBox="0 0 135.92 180.82"><defs><style>.cls-1{fill:#f9fbfc;stroke:#1f2937;stroke-miterlimit:10;stroke-width:2px;}</style></defs><g id="Layer_2" data-name="Layer 2"><g id="Layer_1-2" data-name="Layer 1"><rect class="cls-1" x="50.61" y="10.79" width="22.04" height="168.93" rx="4.36" transform="translate(-1.66 1.1) rotate(-1)"/><path class="cls-1" d="M103.6,2.86h0A33.08,33.08,0,0,0,92.08,1l-18.19.31L35.42,2a1.94,1.94,0,0,0-1.85,1.69l-1.39,8.82a2.49,2.49,0,0,1-2.37,2.17l-7.92.14a1.26,1.26,0,0,1-1.23-1L18.68,4a2.07,2.07,0,0,0-2-1.71L5.91,2.52A4.87,4.87,0,0,0,1,7.37l.14,7.82.39,22.6.11,6.33a6.43,6.43,0,0,0,6.67,6.14l9.1-.16a2.17,2.17,0,0,0,2.06-1.86l1.63-9.79a1.19,1.19,0,0,1,1.13-1l8.39-.15a2,2,0,0,1,1.95,1.66l1.79,9.29a1.84,1.84,0,0,0,1.82,1.53L88,48.57l7.43-21.76a4,4,0,0,1,5.12-2.61l34.15,12.16a.2.2,0,0,0,.23-.29l-5.21-10.16A46.78,46.78,0,0,0,103.6,2.86Z"/></g></g></svg>