<svg xmlns="http://www.w3.org/2000/svg" viewBox="0 0 19.99 20"><defs><style>.cls-1{fill:#e5e7eb;}.cls-2{fill:#1f2937;}</style></defs><g id="Layer_2" data-name="Layer 2"><g id="Layer_5" data-name="Layer 5"><path class="cls-1" d="M8.86,16.65a6.75,6.75,0,1,1,7.79-7.8A6.75,6.75,0,0,1,8.86,16.65Z"/><path class="cls-2" d="M19.85,8.3A10,10,0,1,0,8.3,19.86,10,10,0,0,0,19.85,8.3ZM11,14a1,1,0,0,1-1,1h0a1,1,0,0,1-1-1V9.08a1,1,0,0,1,1-1h0a1,1,0,0,1,1,1ZM10,7h0a1,1,0,0,1,0-2h0a1,1,0,0,1,0,2Z"/></g></g></svg>