<svg xmlns="http://www.w3.org/2000/svg" viewBox="0 0 29 29"><defs><style>.cls-1{fill:#1f2937;}.cls-2{fill:#e5e7eb;}</style></defs><g id="Layer_2" data-name="Layer 2"><g id="Layer_5" data-name="Layer 5"><circle class="cls-1" cx="14.5" cy="14.5" r="14.5"/><path class="cls-2" d="M9.47,20a8,8,0,0,0,9.07-.53l3.83,3.83a.81.81,0,0,0,1.14,0l.28-.28a.81.81,0,0,0,0-1.14L20,18A8,8,0,0,0,20.49,9a7.9,7.9,0,0,0-5-3.62A8,8,0,0,0,5.85,15,7.89,7.89,0,0,0,9.47,20ZM12.27,7.3A6,6,0,1,1,7.8,11.77,6,6,0,0,1,12.27,7.3Z"/></g></g></svg>