<svg xmlns="http://www.w3.org/2000/svg" viewBox="0 0 20 20"><defs><style>.cls-1{fill:#e5e7eb;}.cls-2{fill:#1f2937;}</style></defs><g id="Layer_2" data-name="Layer 2"><g id="Layer_1-2" data-name="Layer 1"><ellipse class="cls-1" cx="10" cy="10" rx="7.26" ry="7.03"/><path class="cls-2" d="M10,0A10,10,0,1,0,20,10,10,10,0,0,0,10,0Zm4.19,11H11v3.19a.81.81,0,0,1-.81.81H9.81A.81.81,0,0,1,9,14.19V11H5.81A.81.81,0,0,1,5,10.19V9.81A.81.81,0,0,1,5.81,9H9V5.81A.81.81,0,0,1,9.81,5h.38a.81.81,0,0,1,.81.81V9h3.19a.81.81,0,0,1,.81.81v.38A.81.81,0,0,1,14.19,11Z"/></g></g></svg>